<svg xmlns="http://www.w3.org/2000/svg" width="32" height="32" viewBox="0 0 32 32">
  <defs>
    <linearGradient id="c" x1="0" y1="0" x2="32" y2="32" gradientUnits="userSpaceOnUse">
      <stop offset="0" stop-color="#8B1E4A"/>
      <stop offset="1" stop-color="#3B0A1E"/>
    </linearGradient>
  </defs>
  <rect width="32" height="32" rx="7" fill="url(#c)"/>
  <g transform="translate(7 7) scale(0.75)" fill="none" stroke-width="2.2" stroke-linecap="round" stroke-linejoin="round">
    <path d="M20 13c0 5-3.5 7.5-7.66 8.95a1 1 0 0 1-.67-.01C7.5 20.5 4 18 4 13V6a1 1 0 0 1 1-1c2 0 4.5-1.2 6.24-2.72a1.17 1.17 0 0 1 1.52 0C14.51 3.81 17 5 19 5a1 1 0 0 1 1 1z" stroke="#ffffff"/>
    <path d="m9 12 2 2 4-4" stroke="#B7FF2A"/>
  </g>
</svg>
